<svg width="933" height="199" viewBox="0 0 933 199" fill="none" xmlns="http://www.w3.org/2000/svg">
<g opacity="0.6">
<g filter="url(#filter0_d_527_5628)">
<path d="M26.6016 118.589C26.6016 90.5264 49.3506 67.7773 77.413 67.7773H98.1901C126.252 67.7773 149.002 90.5264 149.002 118.589C149.002 146.651 126.253 169.4 98.1901 169.4H77.413C49.3507 169.4 26.6016 146.651 26.6016 118.589Z" stroke="url(#paint0_angular_527_5628)" stroke-width="37.1314" shape-rendering="crispEdges"/>
</g>
<path d="M77.3771 53.7685H98.2229C99.1086 53.7685 99.5126 53.7686 99.8489 53.7722C134.411 54.1452 162.338 82.072 162.711 116.634C162.714 116.97 162.714 117.374 162.714 118.26C162.714 119.146 162.714 119.55 162.711 119.886C162.338 154.448 134.411 182.375 99.8489 182.748C99.5126 182.751 99.1086 182.751 98.2229 182.751H77.3771C76.4914 182.751 76.0874 182.751 75.7511 182.748C41.1892 182.375 13.2624 154.448 12.8894 119.886C12.8858 119.55 12.8857 119.146 12.8857 118.26C12.8857 117.374 12.8858 116.97 12.8894 116.634C13.2624 82.072 41.1892 54.1452 75.7511 53.7722C76.0874 53.7686 76.4914 53.7685 77.3771 53.7685Z" stroke="url(#paint1_linear_527_5628)" stroke-opacity="0.6" stroke-width="9.77143" style="mix-blend-mode:color-dodge"/>
<path d="M77.3771 53.7685H98.2229C99.1086 53.7685 99.5126 53.7686 99.8489 53.7722C134.411 54.1452 162.338 82.072 162.711 116.634C162.714 116.97 162.714 117.374 162.714 118.26C162.714 119.146 162.714 119.55 162.711 119.886C162.338 154.448 134.411 182.375 99.8489 182.748C99.5126 182.751 99.1086 182.751 98.2229 182.751H77.3771C76.4914 182.751 76.0874 182.751 75.7511 182.748C41.1892 182.375 13.2624 154.448 12.8894 119.886C12.8858 119.55 12.8857 119.146 12.8857 118.26C12.8857 117.374 12.8858 116.97 12.8894 116.634C13.2624 82.072 41.1892 54.1452 75.7511 53.7722C76.0874 53.7686 76.4914 53.7685 77.3771 53.7685Z" stroke="url(#paint2_angular_527_5628)" stroke-width="9.77143"/>
<path d="M77.3771 53.7685H98.2229C99.1086 53.7685 99.5126 53.7686 99.8489 53.7722C134.411 54.1452 162.338 82.072 162.711 116.634C162.714 116.97 162.714 117.374 162.714 118.26C162.714 119.146 162.714 119.55 162.711 119.886C162.338 154.448 134.411 182.375 99.8489 182.748C99.5126 182.751 99.1086 182.751 98.2229 182.751H77.3771C76.4914 182.751 76.0874 182.751 75.7511 182.748C41.1892 182.375 13.2624 154.448 12.8894 119.886C12.8858 119.55 12.8857 119.146 12.8857 118.26C12.8857 117.374 12.8858 116.97 12.8894 116.634C13.2624 82.072 41.1892 54.1452 75.7511 53.7722C76.0874 53.7686 76.4914 53.7685 77.3771 53.7685Z" stroke="url(#paint3_linear_527_5628)" stroke-opacity="0.6" stroke-width="9.77143" style="mix-blend-mode:color-dodge"/>
<path d="M77.3771 53.7685H98.2229C99.1086 53.7685 99.5126 53.7686 99.8489 53.7722C134.411 54.1452 162.338 82.072 162.711 116.634C162.714 116.97 162.714 117.374 162.714 118.26C162.714 119.146 162.714 119.55 162.711 119.886C162.338 154.448 134.411 182.375 99.8489 182.748C99.5126 182.751 99.1086 182.751 98.2229 182.751H77.3771C76.4914 182.751 76.0874 182.751 75.7511 182.748C41.1892 182.375 13.2624 154.448 12.8894 119.886C12.8858 119.55 12.8857 119.146 12.8857 118.26C12.8857 117.374 12.8858 116.97 12.8894 116.634C13.2624 82.072 41.1892 54.1452 75.7511 53.7722C76.0874 53.7686 76.4914 53.7685 77.3771 53.7685Z" stroke="url(#paint4_angular_527_5628)" stroke-width="9.77143"/>
</g>
<g filter="url(#filter1_d_527_5628)">
<path d="M145.815 134.873H166.592C194.655 134.873 217.404 112.124 217.404 84.0614C217.404 55.9991 194.655 33.25 166.592 33.25H145.815C117.753 33.25 95.0039 55.9991 95.0039 84.0614C95.0039 95.2673 98.6314 105.626 104.776 114.027C109.373 120.312 115.379 125.501 122.328 129.13" stroke="url(#paint5_angular_527_5628)" stroke-width="37.1314" shape-rendering="crispEdges"/>
</g>
<path d="M145.779 19.2451H166.625C167.511 19.2451 167.915 19.2452 168.251 19.2488C202.813 19.6217 230.74 47.5486 231.113 82.1105C231.117 82.4467 231.117 82.8508 231.117 83.7365C231.117 84.6223 231.117 85.0263 231.113 85.3625C230.74 119.924 202.813 147.851 168.251 148.224C167.915 148.228 167.511 148.228 166.625 148.228H145.779C144.894 148.228 144.49 148.228 144.153 148.224C109.592 147.851 81.6647 119.924 81.2918 85.3625C81.2881 85.0263 81.2881 84.6223 81.2881 83.7365C81.2881 82.8508 81.2881 82.4467 81.2918 82.1105C81.6647 47.5486 109.592 19.6217 144.153 19.2488C144.49 19.2452 144.894 19.2451 145.779 19.2451Z" stroke="url(#paint6_linear_527_5628)" stroke-opacity="0.6" stroke-width="9.77143" style="mix-blend-mode:color-dodge"/>
<path d="M145.779 19.2451H166.625C167.511 19.2451 167.915 19.2452 168.251 19.2488C202.813 19.6217 230.74 47.5486 231.113 82.1105C231.117 82.4467 231.117 82.8508 231.117 83.7365C231.117 84.6223 231.117 85.0263 231.113 85.3625C230.74 119.924 202.813 147.851 168.251 148.224C167.915 148.228 167.511 148.228 166.625 148.228H145.779C144.894 148.228 144.49 148.228 144.153 148.224C109.592 147.851 81.6647 119.924 81.2918 85.3625C81.2881 85.0263 81.2881 84.6223 81.2881 83.7365C81.2881 82.8508 81.2881 82.4467 81.2918 82.1105C81.6647 47.5486 109.592 19.6217 144.153 19.2488C144.49 19.2452 144.894 19.2451 145.779 19.2451Z" stroke="url(#paint7_angular_527_5628)" stroke-width="9.77143"/>
<path d="M305.462 98V35.168H317.254V88.496H341.454V98H305.462ZM362.173 50.304V98H350.557V50.304H362.173ZM356.453 31.912C358.154 31.912 359.621 32.352 360.853 33.232C362.085 34.0533 362.701 35.5493 362.701 37.72C362.701 39.832 362.085 41.3573 360.853 42.296C359.621 43.176 358.154 43.616 356.453 43.616C354.634 43.616 353.109 43.176 351.877 42.296C350.645 41.3573 350.029 39.832 350.029 37.72C350.029 35.5493 350.645 34.0533 351.877 33.232C353.109 32.352 354.634 31.912 356.453 31.912ZM399.955 49.424C404.942 49.424 408.872 50.8027 411.747 53.56C414.622 56.3173 416.059 60.776 416.059 66.936V98H404.355V69.136C404.355 65.5573 403.739 62.888 402.507 61.128C401.275 59.3093 399.339 58.4 396.699 58.4C392.768 58.4 390.099 59.808 388.691 62.624C387.283 65.3813 386.579 69.4 386.579 74.68V98H374.875V50.304H383.851L385.523 56.552H385.963C387.019 54.9093 388.251 53.56 389.659 52.504C391.067 51.448 392.651 50.6853 394.411 50.216C396.171 49.688 398.019 49.424 399.955 49.424ZM440.116 62.888C440.116 64.4133 440.057 66.0267 439.94 67.728C439.823 69.3707 439.676 70.984 439.5 72.568H439.852C440.145 71.864 440.585 71.1013 441.172 70.28C441.759 69.4 442.375 68.5493 443.02 67.728C443.724 66.848 444.399 66.056 445.044 65.352L457.452 50.304H470.652L453.316 70.896L471.708 98H458.244L445.308 77.584L440.116 82.16V98H428.5V31.12H440.116V62.888ZM504.92 98L489.608 46.52H489.256C489.314 47.6933 489.402 49.3653 489.52 51.536C489.637 53.648 489.725 55.9653 489.784 58.488C489.901 60.952 489.96 63.2693 489.96 65.44V98H479.4V35.168H495.592L510.552 84.536H510.816L526.04 35.168H542.32V98H531.232V64.912C531.232 62.9173 531.261 60.7467 531.32 58.4C531.378 55.9947 531.466 53.736 531.584 51.624C531.701 49.4533 531.789 47.7813 531.848 46.608H531.496L515.744 98H504.92ZM575.127 49.424C580.877 49.424 585.277 50.7733 588.327 53.472C591.378 56.112 592.903 60.2773 592.903 65.968V98H584.719L582.431 91.4H582.079C580.789 93.1013 579.469 94.5387 578.119 95.712C576.77 96.8267 575.215 97.6187 573.455 98.088C571.695 98.616 569.583 98.88 567.119 98.88C564.479 98.88 562.103 98.352 559.991 97.296C557.879 96.24 556.207 94.6267 554.975 92.456C553.743 90.2267 553.127 87.44 553.127 84.096C553.127 79.168 554.829 75.472 558.231 73.008C561.634 70.4853 566.738 69.1067 573.543 68.872L581.199 68.608V66.232C581.199 63.1813 580.554 61.0107 579.263 59.72C577.973 58.4293 576.213 57.784 573.983 57.784C571.871 57.784 569.73 58.136 567.559 58.84C565.447 59.544 563.365 60.3653 561.311 61.304L557.703 53.56C560.109 52.328 562.778 51.3307 565.711 50.568C568.645 49.8053 571.783 49.424 575.127 49.424ZM576.271 75.648C572.106 75.824 569.202 76.6747 567.559 78.2C565.917 79.6667 565.095 81.6613 565.095 84.184C565.095 86.4133 565.653 88.0267 566.767 89.024C567.941 90.0213 569.466 90.52 571.343 90.52C574.101 90.52 576.447 89.6107 578.383 87.792C580.319 85.9147 581.287 83.1573 581.287 79.52V75.472L576.271 75.648ZM636.69 84.184C636.69 87.352 635.986 90.0507 634.578 92.28C633.17 94.4507 631.087 96.0933 628.33 97.208C625.572 98.3227 622.111 98.88 617.946 98.88C614.778 98.88 612.02 98.6453 609.674 98.176C607.327 97.7067 605.068 96.9733 602.898 95.976V86.56C605.244 87.6747 607.767 88.6133 610.466 89.376C613.223 90.1387 615.716 90.52 617.946 90.52C620.586 90.52 622.492 90.0507 623.666 89.112C624.839 88.1733 625.426 86.912 625.426 85.328C625.426 84.3893 625.162 83.5387 624.634 82.776C624.164 82.0133 623.167 81.2213 621.642 80.4C620.175 79.52 618.034 78.4347 615.218 77.144C612.46 75.912 610.172 74.68 608.354 73.448C606.535 72.216 605.156 70.7493 604.218 69.048C603.279 67.288 602.81 65.088 602.81 62.448C602.81 58.1653 604.423 54.9387 607.65 52.768C610.935 50.5387 615.218 49.424 620.498 49.424C623.372 49.424 626.042 49.7173 628.506 50.304C631.028 50.832 633.551 51.712 636.074 52.944L632.642 61.128C631.234 60.4827 629.796 59.9253 628.33 59.456C626.922 58.928 625.543 58.5173 624.194 58.224C622.903 57.9307 621.612 57.784 620.322 57.784C618.268 57.784 616.714 58.1653 615.658 58.928C614.602 59.632 614.074 60.6587 614.074 62.008C614.074 62.9467 614.338 63.7973 614.866 64.56C615.394 65.264 616.391 65.9973 617.858 66.76C619.324 67.5227 621.407 68.4907 624.106 69.664C626.804 70.72 629.092 71.864 630.97 73.096C632.847 74.2693 634.255 75.736 635.194 77.496C636.191 79.256 636.69 81.4853 636.69 84.184ZM665.094 89.992C666.384 89.992 667.616 89.8747 668.79 89.64C670.022 89.3467 671.166 89.024 672.222 88.672V96.944C670.99 97.472 669.494 97.912 667.734 98.264C665.974 98.6747 664.008 98.88 661.838 98.88C659.139 98.88 656.734 98.44 654.622 97.56C652.51 96.6213 650.838 95.0373 649.606 92.808C648.432 90.5787 647.846 87.4693 647.846 83.48V58.664H641.862V53.824L648.55 49.952L652.07 39.832H659.462V50.304H671.782V58.664H659.462V83.392C659.462 85.6213 659.96 87.2933 660.958 88.408C662.014 89.464 663.392 89.992 665.094 89.992ZM699.643 49.424C703.749 49.424 707.269 50.304 710.203 52.064C713.195 53.7653 715.512 56.2293 717.155 59.456C718.797 62.624 719.619 66.496 719.619 71.072V76.704H690.403C690.52 81.0453 691.576 84.4187 693.571 86.824C695.624 89.1707 698.499 90.344 702.195 90.344C705.128 90.344 707.739 90.0507 710.027 89.464C712.315 88.8187 714.691 87.9093 717.155 86.736V95.624C714.925 96.7387 712.608 97.56 710.203 98.088C707.797 98.616 704.835 98.88 701.315 98.88C696.856 98.88 692.896 98 689.435 96.24C686.032 94.4213 683.363 91.6933 681.427 88.056C679.491 84.4187 678.523 79.9013 678.523 74.504C678.523 69.048 679.403 64.472 681.163 60.776C682.923 57.0213 685.387 54.2053 688.555 52.328C691.781 50.392 695.477 49.424 699.643 49.424ZM699.819 57.608C697.179 57.608 695.037 58.576 693.395 60.512C691.811 62.3893 690.872 65.2053 690.579 68.96H708.531C708.531 66.7307 708.208 64.7653 707.563 63.064C706.917 61.3627 705.949 60.0427 704.659 59.104C703.427 58.1067 701.813 57.608 699.819 57.608ZM754.001 49.424C754.822 49.424 755.673 49.4533 756.553 49.512C757.433 49.5707 758.166 49.688 758.753 49.864L757.697 60.16C757.11 60.0427 756.406 59.9547 755.585 59.896C754.822 59.7787 754.001 59.72 753.121 59.72C751.654 59.72 750.217 60.0133 748.809 60.6C747.401 61.128 746.14 61.9493 745.025 63.064C743.91 64.12 743.001 65.4987 742.297 67.2C741.652 68.9013 741.329 70.9253 741.329 73.272V98H729.625V50.304H738.601L740.185 58.576H740.801C741.681 56.8747 742.766 55.3493 744.057 54C745.406 52.592 746.902 51.4773 748.545 50.656C750.246 49.8347 752.065 49.424 754.001 49.424ZM835.675 98H822.123L808.395 72.92L794.579 98H781.731L801.355 65.44L782.963 35.168H796.075L808.747 58.576L821.243 35.168H834.267L815.699 65.88L835.675 98ZM878.637 80.84C878.637 84.536 877.787 87.7333 876.085 90.432C874.443 93.1307 871.979 95.2133 868.693 96.68C865.467 98.1467 861.477 98.88 856.725 98.88C854.379 98.88 852.208 98.7333 850.213 98.44C848.219 98.2053 846.341 97.824 844.581 97.296C842.88 96.768 841.237 96.1227 839.653 95.36V84.8C842.293 85.9733 845.139 87.0587 848.189 88.056C851.299 88.9947 854.32 89.464 857.253 89.464C859.483 89.464 861.301 89.1413 862.709 88.496C864.117 87.792 865.144 86.8533 865.789 85.68C866.493 84.448 866.845 83.04 866.845 81.456C866.845 79.696 866.405 78.2 865.525 76.968C864.704 75.736 863.413 74.592 861.653 73.536C859.893 72.48 857.605 71.3947 854.789 70.28C852.795 69.4 850.888 68.4613 849.069 67.464C847.309 66.408 845.755 65.1467 844.405 63.68C843.115 62.2133 842.088 60.4827 841.325 58.488C840.621 56.4933 840.269 54.1467 840.269 51.448C840.269 47.8693 841.12 44.7893 842.821 42.208C844.523 39.6267 846.899 37.6613 849.949 36.312C853 34.9627 856.549 34.288 860.597 34.288C864 34.288 867.109 34.64 869.925 35.344C872.8 36.048 875.499 37.0453 878.021 38.336L874.325 47.4C871.92 46.2853 869.544 45.4053 867.197 44.76C864.909 44.1147 862.592 43.792 860.245 43.792C858.427 43.792 856.901 44.1147 855.669 44.76C854.437 45.3467 853.499 46.1973 852.853 47.312C852.267 48.4267 851.973 49.7173 851.973 51.184C851.973 52.8853 852.384 54.3227 853.205 55.496C854.027 56.6693 855.317 57.784 857.077 58.84C858.837 59.8373 861.125 61.0107 863.941 62.36C867.051 63.768 869.691 65.264 871.861 66.848C874.091 68.432 875.763 70.3387 876.877 72.568C878.051 74.7973 878.637 77.5547 878.637 80.84Z" fill="white"/>
<path d="M305.462 98V35.168H317.254V88.496H341.454V98H305.462ZM362.173 50.304V98H350.557V50.304H362.173ZM356.453 31.912C358.154 31.912 359.621 32.352 360.853 33.232C362.085 34.0533 362.701 35.5493 362.701 37.72C362.701 39.832 362.085 41.3573 360.853 42.296C359.621 43.176 358.154 43.616 356.453 43.616C354.634 43.616 353.109 43.176 351.877 42.296C350.645 41.3573 350.029 39.832 350.029 37.72C350.029 35.5493 350.645 34.0533 351.877 33.232C353.109 32.352 354.634 31.912 356.453 31.912ZM399.955 49.424C404.942 49.424 408.872 50.8027 411.747 53.56C414.622 56.3173 416.059 60.776 416.059 66.936V98H404.355V69.136C404.355 65.5573 403.739 62.888 402.507 61.128C401.275 59.3093 399.339 58.4 396.699 58.4C392.768 58.4 390.099 59.808 388.691 62.624C387.283 65.3813 386.579 69.4 386.579 74.68V98H374.875V50.304H383.851L385.523 56.552H385.963C387.019 54.9093 388.251 53.56 389.659 52.504C391.067 51.448 392.651 50.6853 394.411 50.216C396.171 49.688 398.019 49.424 399.955 49.424ZM440.116 62.888C440.116 64.4133 440.057 66.0267 439.94 67.728C439.823 69.3707 439.676 70.984 439.5 72.568H439.852C440.145 71.864 440.585 71.1013 441.172 70.28C441.759 69.4 442.375 68.5493 443.02 67.728C443.724 66.848 444.399 66.056 445.044 65.352L457.452 50.304H470.652L453.316 70.896L471.708 98H458.244L445.308 77.584L440.116 82.16V98H428.5V31.12H440.116V62.888ZM504.92 98L489.608 46.52H489.256C489.314 47.6933 489.402 49.3653 489.52 51.536C489.637 53.648 489.725 55.9653 489.784 58.488C489.901 60.952 489.96 63.2693 489.96 65.44V98H479.4V35.168H495.592L510.552 84.536H510.816L526.04 35.168H542.32V98H531.232V64.912C531.232 62.9173 531.261 60.7467 531.32 58.4C531.378 55.9947 531.466 53.736 531.584 51.624C531.701 49.4533 531.789 47.7813 531.848 46.608H531.496L515.744 98H504.92ZM575.127 49.424C580.877 49.424 585.277 50.7733 588.327 53.472C591.378 56.112 592.903 60.2773 592.903 65.968V98H584.719L582.431 91.4H582.079C580.789 93.1013 579.469 94.5387 578.119 95.712C576.77 96.8267 575.215 97.6187 573.455 98.088C571.695 98.616 569.583 98.88 567.119 98.88C564.479 98.88 562.103 98.352 559.991 97.296C557.879 96.24 556.207 94.6267 554.975 92.456C553.743 90.2267 553.127 87.44 553.127 84.096C553.127 79.168 554.829 75.472 558.231 73.008C561.634 70.4853 566.738 69.1067 573.543 68.872L581.199 68.608V66.232C581.199 63.1813 580.554 61.0107 579.263 59.72C577.973 58.4293 576.213 57.784 573.983 57.784C571.871 57.784 569.73 58.136 567.559 58.84C565.447 59.544 563.365 60.3653 561.311 61.304L557.703 53.56C560.109 52.328 562.778 51.3307 565.711 50.568C568.645 49.8053 571.783 49.424 575.127 49.424ZM576.271 75.648C572.106 75.824 569.202 76.6747 567.559 78.2C565.917 79.6667 565.095 81.6613 565.095 84.184C565.095 86.4133 565.653 88.0267 566.767 89.024C567.941 90.0213 569.466 90.52 571.343 90.52C574.101 90.52 576.447 89.6107 578.383 87.792C580.319 85.9147 581.287 83.1573 581.287 79.52V75.472L576.271 75.648ZM636.69 84.184C636.69 87.352 635.986 90.0507 634.578 92.28C633.17 94.4507 631.087 96.0933 628.33 97.208C625.572 98.3227 622.111 98.88 617.946 98.88C614.778 98.88 612.02 98.6453 609.674 98.176C607.327 97.7067 605.068 96.9733 602.898 95.976V86.56C605.244 87.6747 607.767 88.6133 610.466 89.376C613.223 90.1387 615.716 90.52 617.946 90.52C620.586 90.52 622.492 90.0507 623.666 89.112C624.839 88.1733 625.426 86.912 625.426 85.328C625.426 84.3893 625.162 83.5387 624.634 82.776C624.164 82.0133 623.167 81.2213 621.642 80.4C620.175 79.52 618.034 78.4347 615.218 77.144C612.46 75.912 610.172 74.68 608.354 73.448C606.535 72.216 605.156 70.7493 604.218 69.048C603.279 67.288 602.81 65.088 602.81 62.448C602.81 58.1653 604.423 54.9387 607.65 52.768C610.935 50.5387 615.218 49.424 620.498 49.424C623.372 49.424 626.042 49.7173 628.506 50.304C631.028 50.832 633.551 51.712 636.074 52.944L632.642 61.128C631.234 60.4827 629.796 59.9253 628.33 59.456C626.922 58.928 625.543 58.5173 624.194 58.224C622.903 57.9307 621.612 57.784 620.322 57.784C618.268 57.784 616.714 58.1653 615.658 58.928C614.602 59.632 614.074 60.6587 614.074 62.008C614.074 62.9467 614.338 63.7973 614.866 64.56C615.394 65.264 616.391 65.9973 617.858 66.76C619.324 67.5227 621.407 68.4907 624.106 69.664C626.804 70.72 629.092 71.864 630.97 73.096C632.847 74.2693 634.255 75.736 635.194 77.496C636.191 79.256 636.69 81.4853 636.69 84.184ZM665.094 89.992C666.384 89.992 667.616 89.8747 668.79 89.64C670.022 89.3467 671.166 89.024 672.222 88.672V96.944C670.99 97.472 669.494 97.912 667.734 98.264C665.974 98.6747 664.008 98.88 661.838 98.88C659.139 98.88 656.734 98.44 654.622 97.56C652.51 96.6213 650.838 95.0373 649.606 92.808C648.432 90.5787 647.846 87.4693 647.846 83.48V58.664H641.862V53.824L648.55 49.952L652.07 39.832H659.462V50.304H671.782V58.664H659.462V83.392C659.462 85.6213 659.96 87.2933 660.958 88.408C662.014 89.464 663.392 89.992 665.094 89.992ZM699.643 49.424C703.749 49.424 707.269 50.304 710.203 52.064C713.195 53.7653 715.512 56.2293 717.155 59.456C718.797 62.624 719.619 66.496 719.619 71.072V76.704H690.403C690.52 81.0453 691.576 84.4187 693.571 86.824C695.624 89.1707 698.499 90.344 702.195 90.344C705.128 90.344 707.739 90.0507 710.027 89.464C712.315 88.8187 714.691 87.9093 717.155 86.736V95.624C714.925 96.7387 712.608 97.56 710.203 98.088C707.797 98.616 704.835 98.88 701.315 98.88C696.856 98.88 692.896 98 689.435 96.24C686.032 94.4213 683.363 91.6933 681.427 88.056C679.491 84.4187 678.523 79.9013 678.523 74.504C678.523 69.048 679.403 64.472 681.163 60.776C682.923 57.0213 685.387 54.2053 688.555 52.328C691.781 50.392 695.477 49.424 699.643 49.424ZM699.819 57.608C697.179 57.608 695.037 58.576 693.395 60.512C691.811 62.3893 690.872 65.2053 690.579 68.96H708.531C708.531 66.7307 708.208 64.7653 707.563 63.064C706.917 61.3627 705.949 60.0427 704.659 59.104C703.427 58.1067 701.813 57.608 699.819 57.608ZM754.001 49.424C754.822 49.424 755.673 49.4533 756.553 49.512C757.433 49.5707 758.166 49.688 758.753 49.864L757.697 60.16C757.11 60.0427 756.406 59.9547 755.585 59.896C754.822 59.7787 754.001 59.72 753.121 59.72C751.654 59.72 750.217 60.0133 748.809 60.6C747.401 61.128 746.14 61.9493 745.025 63.064C743.91 64.12 743.001 65.4987 742.297 67.2C741.652 68.9013 741.329 70.9253 741.329 73.272V98H729.625V50.304H738.601L740.185 58.576H740.801C741.681 56.8747 742.766 55.3493 744.057 54C745.406 52.592 746.902 51.4773 748.545 50.656C750.246 49.8347 752.065 49.424 754.001 49.424ZM835.675 98H822.123L808.395 72.92L794.579 98H781.731L801.355 65.44L782.963 35.168H796.075L808.747 58.576L821.243 35.168H834.267L815.699 65.88L835.675 98ZM878.637 80.84C878.637 84.536 877.787 87.7333 876.085 90.432C874.443 93.1307 871.979 95.2133 868.693 96.68C865.467 98.1467 861.477 98.88 856.725 98.88C854.379 98.88 852.208 98.7333 850.213 98.44C848.219 98.2053 846.341 97.824 844.581 97.296C842.88 96.768 841.237 96.1227 839.653 95.36V84.8C842.293 85.9733 845.139 87.0587 848.189 88.056C851.299 88.9947 854.32 89.464 857.253 89.464C859.483 89.464 861.301 89.1413 862.709 88.496C864.117 87.792 865.144 86.8533 865.789 85.68C866.493 84.448 866.845 83.04 866.845 81.456C866.845 79.696 866.405 78.2 865.525 76.968C864.704 75.736 863.413 74.592 861.653 73.536C859.893 72.48 857.605 71.3947 854.789 70.28C852.795 69.4 850.888 68.4613 849.069 67.464C847.309 66.408 845.755 65.1467 844.405 63.68C843.115 62.2133 842.088 60.4827 841.325 58.488C840.621 56.4933 840.269 54.1467 840.269 51.448C840.269 47.8693 841.12 44.7893 842.821 42.208C844.523 39.6267 846.899 37.6613 849.949 36.312C853 34.9627 856.549 34.288 860.597 34.288C864 34.288 867.109 34.64 869.925 35.344C872.8 36.048 875.499 37.0453 878.021 38.336L874.325 47.4C871.92 46.2853 869.544 45.4053 867.197 44.76C864.909 44.1147 862.592 43.792 860.245 43.792C858.427 43.792 856.901 44.1147 855.669 44.76C854.437 45.3467 853.499 46.1973 852.853 47.312C852.267 48.4267 851.973 49.7173 851.973 51.184C851.973 52.8853 852.384 54.3227 853.205 55.496C854.027 56.6693 855.317 57.784 857.077 58.84C858.837 59.8373 861.125 61.0107 863.941 62.36C867.051 63.768 869.691 65.264 871.861 66.848C874.091 68.432 875.763 70.3387 876.877 72.568C878.051 74.7973 878.637 77.5547 878.637 80.84Z" fill="url(#paint8_linear_527_5628)"/>
<path d="M305.462 98V35.168H317.254V88.496H341.454V98H305.462ZM362.173 50.304V98H350.557V50.304H362.173ZM356.453 31.912C358.154 31.912 359.621 32.352 360.853 33.232C362.085 34.0533 362.701 35.5493 362.701 37.72C362.701 39.832 362.085 41.3573 360.853 42.296C359.621 43.176 358.154 43.616 356.453 43.616C354.634 43.616 353.109 43.176 351.877 42.296C350.645 41.3573 350.029 39.832 350.029 37.72C350.029 35.5493 350.645 34.0533 351.877 33.232C353.109 32.352 354.634 31.912 356.453 31.912ZM399.955 49.424C404.942 49.424 408.872 50.8027 411.747 53.56C414.622 56.3173 416.059 60.776 416.059 66.936V98H404.355V69.136C404.355 65.5573 403.739 62.888 402.507 61.128C401.275 59.3093 399.339 58.4 396.699 58.4C392.768 58.4 390.099 59.808 388.691 62.624C387.283 65.3813 386.579 69.4 386.579 74.68V98H374.875V50.304H383.851L385.523 56.552H385.963C387.019 54.9093 388.251 53.56 389.659 52.504C391.067 51.448 392.651 50.6853 394.411 50.216C396.171 49.688 398.019 49.424 399.955 49.424ZM440.116 62.888C440.116 64.4133 440.057 66.0267 439.94 67.728C439.823 69.3707 439.676 70.984 439.5 72.568H439.852C440.145 71.864 440.585 71.1013 441.172 70.28C441.759 69.4 442.375 68.5493 443.02 67.728C443.724 66.848 444.399 66.056 445.044 65.352L457.452 50.304H470.652L453.316 70.896L471.708 98H458.244L445.308 77.584L440.116 82.16V98H428.5V31.12H440.116V62.888ZM504.92 98L489.608 46.52H489.256C489.314 47.6933 489.402 49.3653 489.52 51.536C489.637 53.648 489.725 55.9653 489.784 58.488C489.901 60.952 489.96 63.2693 489.96 65.44V98H479.4V35.168H495.592L510.552 84.536H510.816L526.04 35.168H542.32V98H531.232V64.912C531.232 62.9173 531.261 60.7467 531.32 58.4C531.378 55.9947 531.466 53.736 531.584 51.624C531.701 49.4533 531.789 47.7813 531.848 46.608H531.496L515.744 98H504.92ZM575.127 49.424C580.877 49.424 585.277 50.7733 588.327 53.472C591.378 56.112 592.903 60.2773 592.903 65.968V98H584.719L582.431 91.4H582.079C580.789 93.1013 579.469 94.5387 578.119 95.712C576.77 96.8267 575.215 97.6187 573.455 98.088C571.695 98.616 569.583 98.88 567.119 98.88C564.479 98.88 562.103 98.352 559.991 97.296C557.879 96.24 556.207 94.6267 554.975 92.456C553.743 90.2267 553.127 87.44 553.127 84.096C553.127 79.168 554.829 75.472 558.231 73.008C561.634 70.4853 566.738 69.1067 573.543 68.872L581.199 68.608V66.232C581.199 63.1813 580.554 61.0107 579.263 59.72C577.973 58.4293 576.213 57.784 573.983 57.784C571.871 57.784 569.73 58.136 567.559 58.84C565.447 59.544 563.365 60.3653 561.311 61.304L557.703 53.56C560.109 52.328 562.778 51.3307 565.711 50.568C568.645 49.8053 571.783 49.424 575.127 49.424ZM576.271 75.648C572.106 75.824 569.202 76.6747 567.559 78.2C565.917 79.6667 565.095 81.6613 565.095 84.184C565.095 86.4133 565.653 88.0267 566.767 89.024C567.941 90.0213 569.466 90.52 571.343 90.52C574.101 90.52 576.447 89.6107 578.383 87.792C580.319 85.9147 581.287 83.1573 581.287 79.52V75.472L576.271 75.648ZM636.69 84.184C636.69 87.352 635.986 90.0507 634.578 92.28C633.17 94.4507 631.087 96.0933 628.33 97.208C625.572 98.3227 622.111 98.88 617.946 98.88C614.778 98.88 612.02 98.6453 609.674 98.176C607.327 97.7067 605.068 96.9733 602.898 95.976V86.56C605.244 87.6747 607.767 88.6133 610.466 89.376C613.223 90.1387 615.716 90.52 617.946 90.52C620.586 90.52 622.492 90.0507 623.666 89.112C624.839 88.1733 625.426 86.912 625.426 85.328C625.426 84.3893 625.162 83.5387 624.634 82.776C624.164 82.0133 623.167 81.2213 621.642 80.4C620.175 79.52 618.034 78.4347 615.218 77.144C612.46 75.912 610.172 74.68 608.354 73.448C606.535 72.216 605.156 70.7493 604.218 69.048C603.279 67.288 602.81 65.088 602.81 62.448C602.81 58.1653 604.423 54.9387 607.65 52.768C610.935 50.5387 615.218 49.424 620.498 49.424C623.372 49.424 626.042 49.7173 628.506 50.304C631.028 50.832 633.551 51.712 636.074 52.944L632.642 61.128C631.234 60.4827 629.796 59.9253 628.33 59.456C626.922 58.928 625.543 58.5173 624.194 58.224C622.903 57.9307 621.612 57.784 620.322 57.784C618.268 57.784 616.714 58.1653 615.658 58.928C614.602 59.632 614.074 60.6587 614.074 62.008C614.074 62.9467 614.338 63.7973 614.866 64.56C615.394 65.264 616.391 65.9973 617.858 66.76C619.324 67.5227 621.407 68.4907 624.106 69.664C626.804 70.72 629.092 71.864 630.97 73.096C632.847 74.2693 634.255 75.736 635.194 77.496C636.191 79.256 636.69 81.4853 636.69 84.184ZM665.094 89.992C666.384 89.992 667.616 89.8747 668.79 89.64C670.022 89.3467 671.166 89.024 672.222 88.672V96.944C670.99 97.472 669.494 97.912 667.734 98.264C665.974 98.6747 664.008 98.88 661.838 98.88C659.139 98.88 656.734 98.44 654.622 97.56C652.51 96.6213 650.838 95.0373 649.606 92.808C648.432 90.5787 647.846 87.4693 647.846 83.48V58.664H641.862V53.824L648.55 49.952L652.07 39.832H659.462V50.304H671.782V58.664H659.462V83.392C659.462 85.6213 659.96 87.2933 660.958 88.408C662.014 89.464 663.392 89.992 665.094 89.992ZM699.643 49.424C703.749 49.424 707.269 50.304 710.203 52.064C713.195 53.7653 715.512 56.2293 717.155 59.456C718.797 62.624 719.619 66.496 719.619 71.072V76.704H690.403C690.52 81.0453 691.576 84.4187 693.571 86.824C695.624 89.1707 698.499 90.344 702.195 90.344C705.128 90.344 707.739 90.0507 710.027 89.464C712.315 88.8187 714.691 87.9093 717.155 86.736V95.624C714.925 96.7387 712.608 97.56 710.203 98.088C707.797 98.616 704.835 98.88 701.315 98.88C696.856 98.88 692.896 98 689.435 96.24C686.032 94.4213 683.363 91.6933 681.427 88.056C679.491 84.4187 678.523 79.9013 678.523 74.504C678.523 69.048 679.403 64.472 681.163 60.776C682.923 57.0213 685.387 54.2053 688.555 52.328C691.781 50.392 695.477 49.424 699.643 49.424ZM699.819 57.608C697.179 57.608 695.037 58.576 693.395 60.512C691.811 62.3893 690.872 65.2053 690.579 68.96H708.531C708.531 66.7307 708.208 64.7653 707.563 63.064C706.917 61.3627 705.949 60.0427 704.659 59.104C703.427 58.1067 701.813 57.608 699.819 57.608ZM754.001 49.424C754.822 49.424 755.673 49.4533 756.553 49.512C757.433 49.5707 758.166 49.688 758.753 49.864L757.697 60.16C757.11 60.0427 756.406 59.9547 755.585 59.896C754.822 59.7787 754.001 59.72 753.121 59.72C751.654 59.72 750.217 60.0133 748.809 60.6C747.401 61.128 746.14 61.9493 745.025 63.064C743.91 64.12 743.001 65.4987 742.297 67.2C741.652 68.9013 741.329 70.9253 741.329 73.272V98H729.625V50.304H738.601L740.185 58.576H740.801C741.681 56.8747 742.766 55.3493 744.057 54C745.406 52.592 746.902 51.4773 748.545 50.656C750.246 49.8347 752.065 49.424 754.001 49.424ZM835.675 98H822.123L808.395 72.92L794.579 98H781.731L801.355 65.44L782.963 35.168H796.075L808.747 58.576L821.243 35.168H834.267L815.699 65.88L835.675 98ZM878.637 80.84C878.637 84.536 877.787 87.7333 876.085 90.432C874.443 93.1307 871.979 95.2133 868.693 96.68C865.467 98.1467 861.477 98.88 856.725 98.88C854.379 98.88 852.208 98.7333 850.213 98.44C848.219 98.2053 846.341 97.824 844.581 97.296C842.88 96.768 841.237 96.1227 839.653 95.36V84.8C842.293 85.9733 845.139 87.0587 848.189 88.056C851.299 88.9947 854.32 89.464 857.253 89.464C859.483 89.464 861.301 89.1413 862.709 88.496C864.117 87.792 865.144 86.8533 865.789 85.68C866.493 84.448 866.845 83.04 866.845 81.456C866.845 79.696 866.405 78.2 865.525 76.968C864.704 75.736 863.413 74.592 861.653 73.536C859.893 72.48 857.605 71.3947 854.789 70.28C852.795 69.4 850.888 68.4613 849.069 67.464C847.309 66.408 845.755 65.1467 844.405 63.68C843.115 62.2133 842.088 60.4827 841.325 58.488C840.621 56.4933 840.269 54.1467 840.269 51.448C840.269 47.8693 841.12 44.7893 842.821 42.208C844.523 39.6267 846.899 37.6613 849.949 36.312C853 34.9627 856.549 34.288 860.597 34.288C864 34.288 867.109 34.64 869.925 35.344C872.8 36.048 875.499 37.0453 878.021 38.336L874.325 47.4C871.92 46.2853 869.544 45.4053 867.197 44.76C864.909 44.1147 862.592 43.792 860.245 43.792C858.427 43.792 856.901 44.1147 855.669 44.76C854.437 45.3467 853.499 46.1973 852.853 47.312C852.267 48.4267 851.973 49.7173 851.973 51.184C851.973 52.8853 852.384 54.3227 853.205 55.496C854.027 56.6693 855.317 57.784 857.077 58.84C858.837 59.8373 861.125 61.0107 863.941 62.36C867.051 63.768 869.691 65.264 871.861 66.848C874.091 68.432 875.763 70.3387 876.877 72.568C878.051 74.7973 878.637 77.5547 878.637 80.84Z" fill="white" fill-opacity="0.8"/>
<path d="M327.538 182L322.408 168.716H306.37L301.186 182H298L313.174 143.336H315.982L330.778 182H327.538ZM316.252 151.976C316.144 151.616 315.982 151.13 315.766 150.518C315.55 149.906 315.334 149.258 315.118 148.574C314.902 147.89 314.686 147.278 314.47 146.738C314.29 147.35 314.092 147.98 313.876 148.628C313.696 149.276 313.498 149.888 313.282 150.464C313.102 151.04 312.922 151.562 312.742 152.03L307.45 165.908H321.436L316.252 151.976ZM347.92 182.54C344.068 182.54 341.098 181.316 339.01 178.868C336.958 176.384 335.932 172.748 335.932 167.96C335.932 162.992 337.012 159.212 339.172 156.62C341.368 154.028 344.374 152.732 348.19 152.732C349.81 152.732 351.214 152.984 352.402 153.488C353.59 153.956 354.598 154.604 355.426 155.432C356.29 156.26 356.956 157.196 357.424 158.24H357.64C357.604 157.376 357.55 156.44 357.478 155.432C357.442 154.388 357.424 153.452 357.424 152.624V140.96H360.502V182H358.018L357.586 176.978H357.424C356.92 177.986 356.254 178.922 355.426 179.786C354.598 180.614 353.572 181.28 352.348 181.784C351.124 182.288 349.648 182.54 347.92 182.54ZM348.298 179.894C351.646 179.894 354.004 178.886 355.372 176.87C356.776 174.854 357.478 171.938 357.478 168.122V167.636C357.478 163.676 356.776 160.652 355.372 158.564C354.004 156.44 351.718 155.378 348.514 155.378C345.418 155.378 343.078 156.476 341.494 158.672C339.91 160.832 339.118 163.946 339.118 168.014C339.118 171.902 339.874 174.854 341.386 176.87C342.898 178.886 345.202 179.894 348.298 179.894ZM378.196 182L367.18 153.272H370.42L377.548 172.334C377.872 173.126 378.16 173.918 378.412 174.71C378.7 175.502 378.952 176.258 379.168 176.978C379.384 177.662 379.564 178.31 379.708 178.922H379.87C380.05 178.31 380.248 177.644 380.464 176.924C380.716 176.204 380.986 175.448 381.274 174.656C381.562 173.864 381.832 173.09 382.084 172.334L389.212 153.272H392.506L381.49 182H378.196ZM409.396 152.786C412.636 152.786 415.048 153.578 416.632 155.162C418.216 156.746 419.008 159.266 419.008 162.722V182H416.686L416.146 177.14H415.984C415.3 178.22 414.508 179.174 413.608 180.002C412.744 180.794 411.682 181.424 410.422 181.892C409.198 182.324 407.686 182.54 405.886 182.54C404.086 182.54 402.52 182.234 401.188 181.622C399.856 180.974 398.83 180.056 398.11 178.868C397.39 177.68 397.03 176.222 397.03 174.494C397.03 171.65 398.2 169.49 400.54 168.014C402.88 166.502 406.282 165.638 410.746 165.422L415.984 165.206V163.154C415.984 160.31 415.408 158.312 414.256 157.16C413.14 155.972 411.466 155.378 409.234 155.378C407.758 155.378 406.336 155.576 404.968 155.972C403.636 156.332 402.286 156.854 400.918 157.538L399.946 155.108C401.278 154.424 402.754 153.866 404.374 153.434C405.994 153.002 407.668 152.786 409.396 152.786ZM411.07 167.69C407.434 167.87 404.716 168.518 402.916 169.634C401.116 170.714 400.216 172.352 400.216 174.548C400.216 176.312 400.774 177.662 401.89 178.598C403.006 179.498 404.518 179.948 406.426 179.948C409.486 179.948 411.826 179.102 413.446 177.41C415.102 175.718 415.948 173.342 415.984 170.282V167.474L411.07 167.69ZM443.047 152.732C446.323 152.732 448.825 153.578 450.553 155.27C452.281 156.962 453.145 159.626 453.145 163.262V182H450.121V163.424C450.121 160.652 449.491 158.618 448.231 157.322C446.971 156.026 445.117 155.378 442.669 155.378C439.537 155.378 437.179 156.296 435.595 158.132C434.011 159.968 433.219 162.704 433.219 166.34V182H430.195V153.272H432.625L433.111 158.24H433.273C433.813 157.196 434.533 156.26 435.433 155.432C436.333 154.604 437.413 153.956 438.673 153.488C439.969 152.984 441.427 152.732 443.047 152.732ZM475.813 182.54C473.005 182.54 470.611 181.964 468.631 180.812C466.687 179.624 465.193 177.932 464.149 175.736C463.141 173.54 462.637 170.894 462.637 167.798C462.637 164.558 463.213 161.822 464.365 159.59C465.553 157.358 467.173 155.666 469.225 154.514C471.277 153.326 473.689 152.732 476.461 152.732C477.829 152.732 479.107 152.876 480.295 153.164C481.519 153.416 482.599 153.758 483.535 154.19L482.725 156.782C481.753 156.386 480.709 156.08 479.593 155.864C478.477 155.612 477.415 155.486 476.407 155.486C474.103 155.486 472.159 155.99 470.575 156.998C469.027 157.97 467.839 159.374 467.011 161.21C466.219 163.046 465.823 165.242 465.823 167.798C465.823 170.174 466.165 172.28 466.849 174.116C467.569 175.916 468.667 177.32 470.143 178.328C471.619 179.336 473.509 179.84 475.813 179.84C477.217 179.84 478.531 179.696 479.755 179.408C481.015 179.12 482.167 178.742 483.211 178.274V181.082C482.275 181.478 481.195 181.82 479.971 182.108C478.747 182.396 477.361 182.54 475.813 182.54ZM502.846 152.732C505.33 152.732 507.382 153.308 509.002 154.46C510.658 155.576 511.9 157.124 512.728 159.104C513.592 161.084 514.024 163.37 514.024 165.962V168.014H493.504C493.504 171.866 494.386 174.8 496.15 176.816C497.95 178.832 500.488 179.84 503.764 179.84C505.564 179.84 507.13 179.696 508.462 179.408C509.794 179.12 511.252 178.616 512.836 177.896V180.704C511.396 181.352 509.974 181.82 508.57 182.108C507.166 182.396 505.528 182.54 503.656 182.54C500.812 182.54 498.382 181.946 496.366 180.758C494.386 179.57 492.874 177.878 491.83 175.682C490.822 173.45 490.318 170.858 490.318 167.906C490.318 164.954 490.804 162.344 491.776 160.076C492.748 157.808 494.17 156.026 496.042 154.73C497.914 153.398 500.182 152.732 502.846 152.732ZM502.846 155.324C500.182 155.324 498.04 156.206 496.42 157.97C494.8 159.698 493.846 162.2 493.558 165.476H510.838C510.838 163.46 510.55 161.696 509.974 160.184C509.398 158.672 508.516 157.484 507.328 156.62C506.176 155.756 504.682 155.324 502.846 155.324ZM534.101 182.54C530.249 182.54 527.279 181.316 525.191 178.868C523.139 176.384 522.113 172.748 522.113 167.96C522.113 162.992 523.193 159.212 525.353 156.62C527.549 154.028 530.555 152.732 534.371 152.732C535.991 152.732 537.395 152.984 538.583 153.488C539.771 153.956 540.779 154.604 541.607 155.432C542.471 156.26 543.137 157.196 543.605 158.24H543.821C543.785 157.376 543.731 156.44 543.659 155.432C543.623 154.388 543.605 153.452 543.605 152.624V140.96H546.683V182H544.199L543.767 176.978H543.605C543.101 177.986 542.435 178.922 541.607 179.786C540.779 180.614 539.753 181.28 538.529 181.784C537.305 182.288 535.829 182.54 534.101 182.54ZM534.479 179.894C537.827 179.894 540.185 178.886 541.553 176.87C542.957 174.854 543.659 171.938 543.659 168.122V167.636C543.659 163.676 542.957 160.652 541.553 158.564C540.185 156.44 537.899 155.378 534.695 155.378C531.599 155.378 529.259 156.476 527.675 158.672C526.091 160.832 525.299 163.946 525.299 168.014C525.299 171.902 526.055 174.854 527.567 176.87C529.079 178.886 531.383 179.894 534.479 179.894ZM616.801 143.444L606.325 182H603.193L595.093 153.65C594.913 153.002 594.733 152.39 594.553 151.814C594.409 151.202 594.265 150.626 594.121 150.086C593.977 149.51 593.851 149.006 593.743 148.574C593.635 148.106 593.545 147.692 593.473 147.332C593.401 147.692 593.329 148.088 593.257 148.52C593.185 148.952 593.077 149.42 592.933 149.924C592.825 150.392 592.699 150.896 592.555 151.436C592.411 151.976 592.267 152.534 592.123 153.11L584.077 182H580.999L570.631 143.444H573.871L580.837 169.904C581.053 170.66 581.233 171.38 581.377 172.064C581.557 172.748 581.719 173.414 581.863 174.062C582.007 174.674 582.133 175.286 582.241 175.898C582.385 176.51 582.511 177.104 582.619 177.68C582.727 177.068 582.835 176.456 582.943 175.844C583.087 175.232 583.231 174.602 583.375 173.954C583.555 173.27 583.735 172.586 583.915 171.902C584.095 171.218 584.293 170.498 584.509 169.742L591.961 143.444H595.093L602.761 169.904C603.013 170.66 603.229 171.398 603.409 172.118C603.589 172.838 603.751 173.522 603.895 174.17C604.039 174.782 604.165 175.394 604.273 176.006C604.417 176.618 604.543 177.212 604.651 177.788C604.795 176.996 604.939 176.204 605.083 175.412C605.263 174.584 605.461 173.72 605.677 172.82C605.893 171.92 606.127 170.966 606.379 169.958L613.507 143.444H616.801ZM634.508 152.732C636.992 152.732 639.044 153.308 640.664 154.46C642.32 155.576 643.562 157.124 644.39 159.104C645.254 161.084 645.686 163.37 645.686 165.962V168.014H625.166C625.166 171.866 626.048 174.8 627.812 176.816C629.612 178.832 632.15 179.84 635.426 179.84C637.226 179.84 638.792 179.696 640.124 179.408C641.456 179.12 642.914 178.616 644.498 177.896V180.704C643.058 181.352 641.636 181.82 640.232 182.108C638.828 182.396 637.19 182.54 635.318 182.54C632.474 182.54 630.044 181.946 628.028 180.758C626.048 179.57 624.536 177.878 623.492 175.682C622.484 173.45 621.98 170.858 621.98 167.906C621.98 164.954 622.466 162.344 623.438 160.076C624.41 157.808 625.832 156.026 627.704 154.73C629.576 153.398 631.844 152.732 634.508 152.732ZM634.508 155.324C631.844 155.324 629.702 156.206 628.082 157.97C626.462 159.698 625.508 162.2 625.22 165.476H642.5C642.5 163.46 642.212 161.696 641.636 160.184C641.06 158.672 640.178 157.484 638.99 156.62C637.838 155.756 636.344 155.324 634.508 155.324ZM658.473 152.3C658.473 153.344 658.455 154.46 658.419 155.648C658.383 156.8 658.329 157.754 658.257 158.51H658.473C659.193 156.854 660.363 155.486 661.983 154.406C663.639 153.29 665.727 152.732 668.247 152.732C671.919 152.732 674.781 153.992 676.833 156.512C678.921 158.996 679.965 162.686 679.965 167.582C679.965 170.606 679.497 173.234 678.561 175.466C677.661 177.698 676.293 179.444 674.457 180.704C672.657 181.928 670.443 182.54 667.815 182.54C665.403 182.54 663.423 182.036 661.875 181.028C660.363 180.02 659.247 178.796 658.527 177.356H658.257L657.663 182H655.395V140.96H658.473V152.3ZM667.815 155.378C665.619 155.378 663.819 155.846 662.415 156.782C661.047 157.718 660.039 159.086 659.391 160.886C658.779 162.686 658.473 164.918 658.473 167.582V167.96C658.473 171.848 659.157 174.818 660.525 176.87C661.929 178.886 664.233 179.894 667.437 179.894C670.533 179.894 672.855 178.832 674.403 176.708C675.987 174.584 676.779 171.542 676.779 167.582C676.779 163.514 676.041 160.472 674.565 158.456C673.089 156.404 670.839 155.378 667.815 155.378ZM723.191 182L709.313 146.738H709.151C709.223 147.386 709.259 148.124 709.259 148.952C709.295 149.744 709.313 150.59 709.313 151.49C709.349 152.354 709.367 153.254 709.367 154.19V182H706.451V143.444H711.149L724.433 177.248H724.649L738.095 143.444H742.685V182H739.607V153.866C739.607 153.074 739.607 152.264 739.607 151.436C739.643 150.608 739.679 149.798 739.715 149.006C739.751 148.214 739.787 147.476 739.823 146.792H739.661L725.729 182H723.191ZM765.047 152.786C768.287 152.786 770.699 153.578 772.283 155.162C773.867 156.746 774.659 159.266 774.659 162.722V182H772.337L771.797 177.14H771.635C770.951 178.22 770.159 179.174 769.259 180.002C768.395 180.794 767.333 181.424 766.073 181.892C764.849 182.324 763.337 182.54 761.537 182.54C759.737 182.54 758.171 182.234 756.839 181.622C755.507 180.974 754.481 180.056 753.761 178.868C753.041 177.68 752.681 176.222 752.681 174.494C752.681 171.65 753.851 169.49 756.191 168.014C758.531 166.502 761.933 165.638 766.397 165.422L771.635 165.206V163.154C771.635 160.31 771.059 158.312 769.907 157.16C768.791 155.972 767.117 155.378 764.885 155.378C763.409 155.378 761.987 155.576 760.619 155.972C759.287 156.332 757.937 156.854 756.569 157.538L755.597 155.108C756.929 154.424 758.405 153.866 760.025 153.434C761.645 153.002 763.319 152.786 765.047 152.786ZM766.721 167.69C763.085 167.87 760.367 168.518 758.567 169.634C756.767 170.714 755.867 172.352 755.867 174.548C755.867 176.312 756.425 177.662 757.541 178.598C758.657 179.498 760.169 179.948 762.077 179.948C765.137 179.948 767.477 179.102 769.097 177.41C770.753 175.718 771.599 173.342 771.635 170.282V167.474L766.721 167.69ZM798.698 152.732C801.974 152.732 804.476 153.578 806.204 155.27C807.932 156.962 808.796 159.626 808.796 163.262V182H805.772V163.424C805.772 160.652 805.142 158.618 803.882 157.322C802.622 156.026 800.768 155.378 798.32 155.378C795.188 155.378 792.83 156.296 791.246 158.132C789.662 159.968 788.87 162.704 788.87 166.34V182H785.846V153.272H788.276L788.762 158.24H788.924C789.464 157.196 790.184 156.26 791.084 155.432C791.984 154.604 793.064 153.956 794.324 153.488C795.62 152.984 797.078 152.732 798.698 152.732ZM830.113 152.786C833.353 152.786 835.765 153.578 837.349 155.162C838.933 156.746 839.725 159.266 839.725 162.722V182H837.403L836.863 177.14H836.701C836.017 178.22 835.225 179.174 834.325 180.002C833.461 180.794 832.399 181.424 831.139 181.892C829.915 182.324 828.403 182.54 826.603 182.54C824.803 182.54 823.237 182.234 821.905 181.622C820.573 180.974 819.547 180.056 818.827 178.868C818.107 177.68 817.747 176.222 817.747 174.494C817.747 171.65 818.917 169.49 821.257 168.014C823.597 166.502 826.999 165.638 831.463 165.422L836.701 165.206V163.154C836.701 160.31 836.125 158.312 834.973 157.16C833.857 155.972 832.183 155.378 829.951 155.378C828.475 155.378 827.053 155.576 825.685 155.972C824.353 156.332 823.003 156.854 821.635 157.538L820.663 155.108C821.995 154.424 823.471 153.866 825.091 153.434C826.711 153.002 828.385 152.786 830.113 152.786ZM831.787 167.69C828.151 167.87 825.433 168.518 823.633 169.634C821.833 170.714 820.933 172.352 820.933 174.548C820.933 176.312 821.491 177.662 822.607 178.598C823.723 179.498 825.235 179.948 827.143 179.948C830.203 179.948 832.543 179.102 834.163 177.41C835.819 175.718 836.665 173.342 836.701 170.282V167.474L831.787 167.69ZM861.442 152.732C863.71 152.732 865.582 153.182 867.058 154.082C868.534 154.946 869.722 156.134 870.622 157.646H870.838L871.27 153.272H873.754V182.918C873.754 185.438 873.322 187.58 872.458 189.344C871.594 191.144 870.244 192.53 868.408 193.502C866.608 194.474 864.25 194.96 861.334 194.96C859.21 194.96 857.302 194.78 855.61 194.42C853.954 194.06 852.46 193.592 851.128 193.016V190.046C852.028 190.478 853.018 190.874 854.098 191.234C855.178 191.594 856.33 191.864 857.554 192.044C858.814 192.224 860.128 192.314 861.496 192.314C864.664 192.314 866.986 191.486 868.462 189.83C869.974 188.174 870.73 185.942 870.73 183.134V181.406C870.73 180.65 870.73 179.894 870.73 179.138C870.766 178.346 870.802 177.608 870.838 176.924H870.676C869.848 178.76 868.624 180.164 867.004 181.136C865.384 182.072 863.404 182.54 861.064 182.54C857.356 182.54 854.458 181.28 852.37 178.76C850.282 176.24 849.238 172.622 849.238 167.906C849.238 164.774 849.706 162.074 850.642 159.806C851.578 157.538 852.946 155.792 854.746 154.568C856.582 153.344 858.814 152.732 861.442 152.732ZM861.766 155.378C859.678 155.378 857.932 155.882 856.528 156.89C855.16 157.862 854.134 159.284 853.45 161.156C852.766 162.992 852.424 165.242 852.424 167.906C852.424 171.83 853.198 174.818 854.746 176.87C856.294 178.922 858.508 179.948 861.388 179.948C863.224 179.948 864.736 179.678 865.924 179.138C867.112 178.562 868.048 177.77 868.732 176.762C869.452 175.754 869.956 174.566 870.244 173.198C870.568 171.794 870.73 170.3 870.73 168.716V166.826C870.73 164.378 870.442 162.308 869.866 160.616C869.29 158.924 868.336 157.628 867.004 156.728C865.708 155.828 863.962 155.378 861.766 155.378ZM896.092 152.732C898.576 152.732 900.628 153.308 902.248 154.46C903.904 155.576 905.146 157.124 905.974 159.104C906.838 161.084 907.27 163.37 907.27 165.962V168.014H886.75C886.75 171.866 887.632 174.8 889.396 176.816C891.196 178.832 893.734 179.84 897.01 179.84C898.81 179.84 900.376 179.696 901.708 179.408C903.04 179.12 904.498 178.616 906.082 177.896V180.704C904.642 181.352 903.22 181.82 901.816 182.108C900.412 182.396 898.774 182.54 896.902 182.54C894.058 182.54 891.628 181.946 889.612 180.758C887.632 179.57 886.12 177.878 885.076 175.682C884.068 173.45 883.564 170.858 883.564 167.906C883.564 164.954 884.05 162.344 885.022 160.076C885.994 157.808 887.416 156.026 889.288 154.73C891.16 153.398 893.428 152.732 896.092 152.732ZM896.092 155.324C893.428 155.324 891.286 156.206 889.666 157.97C888.046 159.698 887.092 162.2 886.804 165.476H904.084C904.084 163.46 903.796 161.696 903.22 160.184C902.644 158.672 901.762 157.484 900.574 156.62C899.422 155.756 897.928 155.324 896.092 155.324ZM928.805 152.786C929.525 152.786 930.209 152.84 930.857 152.948C931.541 153.02 932.153 153.128 932.693 153.272L932.261 156.08C931.685 155.936 931.109 155.828 930.533 155.756C929.957 155.648 929.327 155.594 928.643 155.594C927.347 155.594 926.177 155.846 925.133 156.35C924.089 156.854 923.189 157.574 922.433 158.51C921.677 159.446 921.101 160.562 920.705 161.858C920.309 163.154 920.111 164.612 920.111 166.232V182H917.033V153.272H919.625L919.949 158.672H920.111C920.579 157.556 921.209 156.566 922.001 155.702C922.829 154.802 923.819 154.1 924.971 153.596C926.123 153.056 927.401 152.786 928.805 152.786Z" fill="#EDD6E5" fill-opacity="0.8"/>
<defs>
<filter id="filter0_d_527_5628" x="0.0225849" y="43.8041" width="175.556" height="154.779" filterUnits="userSpaceOnUse" color-interpolation-filters="sRGB">
<feFlood flood-opacity="0" result="BackgroundImageFix"/>
<feColorMatrix in="SourceAlpha" type="matrix" values="0 0 0 0 0 0 0 0 0 0 0 0 0 0 0 0 0 0 127 0" result="hardAlpha"/>
<feOffset dy="2.60571"/>
<feGaussianBlur stdDeviation="4.00629"/>
<feComposite in2="hardAlpha" operator="out"/>
<feColorMatrix type="matrix" values="0 0 0 0 0 0 0 0 0 0 0 0 0 0 0 0 0 0 1 0"/>
<feBlend mode="normal" in2="BackgroundImageFix" result="effect1_dropShadow_527_5628"/>
<feBlend mode="normal" in="SourceGraphic" in2="effect1_dropShadow_527_5628" result="shape"/>
</filter>
<filter id="filter1_d_527_5628" x="62.1061" y="0.352165" width="188.194" height="167.417" filterUnits="userSpaceOnUse" color-interpolation-filters="sRGB">
<feFlood flood-opacity="0" result="BackgroundImageFix"/>
<feColorMatrix in="SourceAlpha" type="matrix" values="0 0 0 0 0 0 0 0 0 0 0 0 0 0 0 0 0 0 127 0" result="hardAlpha"/>
<feOffset/>
<feGaussianBlur stdDeviation="7.16571"/>
<feComposite in2="hardAlpha" operator="out"/>
<feColorMatrix type="matrix" values="0 0 0 0 0 0 0 0 0 0 0 0 0 0 0 0 0 0 0.49 0"/>
<feBlend mode="normal" in2="BackgroundImageFix" result="effect1_dropShadow_527_5628"/>
<feBlend mode="normal" in="SourceGraphic" in2="effect1_dropShadow_527_5628" result="shape"/>
</filter>
<radialGradient id="paint0_angular_527_5628" cx="0" cy="0" r="1" gradientUnits="userSpaceOnUse" gradientTransform="translate(87.8016 118.589) rotate(-65.7736) scale(50.0038 50.602)">
<stop stop-color="#E61142" stop-opacity="0"/>
<stop offset="0.17" stop-color="#E61142"/>
<stop offset="0.325" stop-color="#FC1185"/>
<stop offset="0.51" stop-color="#F013EA"/>
<stop offset="0.64" stop-color="#2B23A0"/>
<stop offset="0.73" stop-color="#2B23A0"/>
<stop offset="1" stop-color="#2B23A0" stop-opacity="0"/>
</radialGradient>
<linearGradient id="paint1_linear_527_5628" x1="72.1657" y1="93.8314" x2="8.35746" y2="45.5364" gradientUnits="userSpaceOnUse">
<stop stop-color="white" stop-opacity="0"/>
<stop offset="0.7" stop-color="white" stop-opacity="0.256"/>
<stop offset="0.86" stop-color="white" stop-opacity="0.681739"/>
<stop offset="1" stop-color="white" stop-opacity="0.8"/>
</linearGradient>
<radialGradient id="paint2_angular_527_5628" cx="0" cy="0" r="1" gradientUnits="userSpaceOnUse" gradientTransform="translate(87.8 118.586) rotate(-180) scale(79.8 70.2344)">
<stop stop-color="#0F7FFF" stop-opacity="0"/>
<stop offset="0.116441" stop-color="#0FFBFF"/>
<stop offset="0.24" stop-color="#0F8EFF" stop-opacity="0"/>
</radialGradient>
<linearGradient id="paint3_linear_527_5628" x1="72.1657" y1="93.8314" x2="8.35746" y2="45.5364" gradientUnits="userSpaceOnUse">
<stop stop-color="white" stop-opacity="0"/>
<stop offset="0.7" stop-color="white" stop-opacity="0.256"/>
<stop offset="0.86" stop-color="white" stop-opacity="0.681739"/>
<stop offset="1" stop-color="white" stop-opacity="0.8"/>
</linearGradient>
<radialGradient id="paint4_angular_527_5628" cx="0" cy="0" r="1" gradientUnits="userSpaceOnUse" gradientTransform="translate(87.8 118.586) rotate(-180) scale(79.8 70.2344)">
<stop stop-color="#0F7FFF" stop-opacity="0"/>
<stop offset="0.116441" stop-color="#0FFBFF"/>
<stop offset="0.24" stop-color="#0F8EFF" stop-opacity="0"/>
</radialGradient>
<radialGradient id="paint5_angular_527_5628" cx="0" cy="0" r="1" gradientUnits="userSpaceOnUse" gradientTransform="translate(156.204 84.0614) rotate(131.339) scale(57.6974 56.3975)">
<stop stop-color="#432B4C" stop-opacity="0"/>
<stop offset="0.035" stop-color="#432B4C" stop-opacity="0"/>
<stop offset="0.2" stop-color="#432B4C"/>
<stop offset="0.34" stop-color="#FF9900"/>
<stop offset="0.575326" stop-color="#FC1E98"/>
<stop offset="0.743344" stop-color="#27208D"/>
<stop offset="0.851076" stop-color="#27208D" stop-opacity="0"/>
</radialGradient>
<linearGradient id="paint6_linear_527_5628" x1="155.877" y1="93.508" x2="104.393" y2="-0.073557" gradientUnits="userSpaceOnUse">
<stop stop-color="white" stop-opacity="0"/>
<stop offset="0.7" stop-color="white" stop-opacity="0.256"/>
<stop offset="0.86" stop-color="white" stop-opacity="0.681739"/>
<stop offset="1" stop-color="white" stop-opacity="0.8"/>
</linearGradient>
<radialGradient id="paint7_angular_527_5628" cx="0" cy="0" r="1" gradientUnits="userSpaceOnUse" gradientTransform="translate(156.202 83.7365) rotate(117.759) scale(72.1423 63.311)">
<stop offset="0.175" stop-color="#FBDD9E" stop-opacity="0"/>
<stop offset="0.282163" stop-color="#FBDD9E"/>
<stop offset="0.425" stop-color="#FBDD9E" stop-opacity="0"/>
</radialGradient>
<linearGradient id="paint8_linear_527_5628" x1="316.718" y1="97.75" x2="882" y2="97.75" gradientUnits="userSpaceOnUse">
<stop stop-color="#FBA035"/>
<stop offset="0.325" stop-color="#E61142"/>
<stop offset="0.645" stop-color="#F013EA"/>
<stop offset="1" stop-color="#0E44F5"/>
</linearGradient>
</defs>
</svg>
